<?xml version="1.0" encoding="UTF-8" standalone="no"?>
<!DOCTYPE svg PUBLIC "-//W3C//DTD SVG 1.1//EN" "http://www.w3.org/Graphics/SVG/1.1/DTD/svg11.dtd">
<svg width="100%" height="100%" viewBox="0 0 2481 2481" version="1.1" xmlns="http://www.w3.org/2000/svg" xmlns:xlink="http://www.w3.org/1999/xlink" xml:space="preserve" xmlns:serif="http://www.serif.com/" style="fill-rule:evenodd;clip-rule:evenodd;stroke-linejoin:round;stroke-miterlimit:2;">
    <g id="Calque-1" serif:id="Calque 1" transform="matrix(11.811024,0,0,11.811024,0,0)">
        <path id="path20" d="M168.563,147.092C165.769,146.878 163.404,146.336 162.553,145.716C160.388,144.141 159.822,140.701 159.83,129.184C159.838,117.693 160.45,113.591 162.451,111.587C164.199,109.836 166.632,109.371 174.068,109.364C184.362,109.355 187.23,110.077 188.565,113.014C190.594,117.476 190.937,136.691 189.099,142.835C188.593,144.526 186.676,145.908 183.888,146.594C181.122,147.274 173.954,147.507 168.563,147.092ZM176.803,136.66C177.05,136.527 177.347,136.073 177.463,135.651C177.579,135.228 177.622,131.804 177.56,128.042C177.429,120.224 177.455,120.323 175.546,120.108C174.181,119.954 173.038,120.384 172.742,121.164C172.622,121.479 172.525,124.934 172.525,128.843C172.525,137.202 172.435,136.9 174.914,136.9C175.706,136.9 176.556,136.792 176.803,136.66L176.803,136.66ZM27.355,146.845C23.968,146.351 23.544,145.935 23.546,143.107C23.549,140.627 23.739,139.854 24.438,139.474C24.73,139.316 26.289,139.122 27.902,139.044C31.109,138.889 31.498,138.707 31.498,137.356C31.498,136.199 30.868,135.795 28.597,135.495C26.058,135.16 24.702,134.7 23.85,133.884C22.687,132.769 22.592,132.097 22.631,125.266C22.691,114.903 23.216,112.564 25.771,111.28C27.74,110.291 28.866,110.19 37.908,110.19C45.756,110.19 46.681,110.232 47.707,110.627C49.311,111.246 49.624,111.947 49.496,114.631C49.352,117.624 49.233,117.72 45.394,117.924C43.584,118.02 42.284,118.198 42.066,118.379C41.611,118.756 41.587,120.597 42.031,120.966C42.21,121.114 43.252,121.345 44.346,121.478C48.248,121.954 49.778,122.674 50.274,124.268C50.676,125.562 50.851,137.505 50.506,140.098C50.143,142.829 49.711,143.833 48.408,144.98C47.095,146.136 45.709,146.572 42.394,146.87C39.364,147.143 29.286,147.126 27.355,146.845L27.355,146.845ZM61.769,146.859C58.533,146.354 58.511,146.261 58.608,133.457L58.683,123.486L56.19,123.308C53.233,123.098 52.579,122.757 52.384,121.324C52.315,120.815 52.319,118.412 52.393,115.983C52.546,110.945 52.696,110.467 54.229,110.142C55.683,109.834 72.63,109.94 75.173,110.274C79.279,110.812 79.357,110.935 79.288,116.805C79.261,119.137 79.123,121.396 78.981,121.825C78.654,122.816 78.024,123.069 75.302,123.302L73.165,123.486L73.008,133.101C72.862,142.106 72.684,144.587 72.108,145.662C71.635,146.546 70.055,146.926 66.517,147.006C64.689,147.048 62.552,146.982 61.769,146.859L61.769,146.859ZM85.587,146.785C83.956,146.335 82.913,145.422 82.09,143.724C80.982,141.438 80.788,139.197 80.977,130.846C81.253,118.626 81.783,112.448 82.673,111.09C83.244,110.217 85.086,109.832 88.581,109.853C93.58,109.884 94.446,110.32 94.888,113.031C95.014,113.809 95.19,117.524 95.279,121.287C95.391,126.065 95.527,128.248 95.729,128.524C96.134,129.078 98.858,129.241 99.514,128.75C99.954,128.42 99.995,127.998 100.146,122.262C100.315,115.858 100.654,111.783 101.084,110.979C101.538,110.13 102.745,109.834 105.743,109.835C109.381,109.837 110.237,110.073 110.755,111.216C111.111,111.999 111.152,113.488 111.152,125.622C111.152,142.512 111.048,143.433 108.928,145.245C106.938,146.947 106.787,146.968 96.195,147.033C89.015,147.077 86.427,147.017 85.587,146.785ZM116.3,146.89C114.497,146.665 113.639,146.093 113.214,144.831C112.815,143.644 112.769,114.739 113.163,112.697C113.615,110.358 114.363,109.706 116.989,109.365C120.379,108.925 130.464,109.214 133.212,109.83C137.224,110.729 139.9,113.561 141.258,118.347C141.744,120.059 141.772,120.631 141.754,128.471C141.74,135.136 141.661,137.117 141.359,138.48C140.292,143.293 137.673,145.649 132.282,146.645C130.554,146.965 118.395,147.151 116.3,146.89L116.3,146.89ZM129.425,137.523C130.252,136.696 130.383,135.41 130.381,128.115C130.379,120.952 130.244,119.986 129.076,118.818C128.37,118.112 127.472,117.945 126.988,118.429C126.567,118.849 126.578,137.76 127,137.93C127.785,138.246 128.886,138.062 129.425,137.523L129.425,137.523ZM147.27,146.864C144.305,146.396 143.686,145.527 143.433,141.481C143.257,138.665 143.622,128.916 144.046,125.126C144.512,120.962 144.783,120.72 149.166,120.564C152.597,120.443 155.78,120.814 156.614,121.432C157.744,122.27 157.87,123.283 157.983,132.453C158.126,144.049 157.912,145.441 155.83,146.476C154.793,146.991 149.574,147.228 147.27,146.864ZM149.524,118.359C145.064,117.498 143.593,112.005 147.055,109.137C150.578,106.217 156.018,108.313 156.336,112.713C156.466,114.508 155.936,115.96 154.779,116.975C153.322,118.255 151.488,118.738 149.523,118.359ZM57.679,102.732C56.593,102.454 55.74,101.84 55.407,101.097C54.95,100.072 55.046,88.173 55.561,82.175C56.56,70.521 57.325,68.134 60.582,66.505L62.006,65.793L78.626,65.793L79.936,66.437C81.463,67.187 82.638,68.263 83.259,69.481C84.06,71.05 84.871,76.527 85.633,85.499C85.898,88.633 86.222,92.344 86.352,93.747C86.482,95.149 86.601,97.421 86.618,98.794C86.662,102.417 86.471,102.554 80.958,102.844C77.12,103.045 75.379,102.857 74.561,102.153C74.001,101.672 73.934,101.4 73.707,98.669C73.571,97.041 73.358,95.579 73.234,95.423C72.907,95.011 71.076,94.79 70.034,95.037C69.229,95.227 69.125,95.341 68.982,96.19C68.894,96.708 68.697,97.88 68.544,98.793C67.963,102.251 67.121,102.775 62.006,102.865C60.048,102.9 58.101,102.84 57.679,102.732L57.679,102.732ZM72.578,85.728C72.807,85.452 72.847,84.495 72.741,81.752C72.596,77.966 72.347,76.744 71.584,76.073C70.524,75.143 69.841,76.321 69.498,79.671C69.163,82.929 69.178,85.452 69.533,85.807C69.956,86.231 72.21,86.172 72.578,85.728L72.578,85.728ZM96.432,102.722C90.306,102.024 89.469,101.131 88.664,94.442C88.208,90.643 88.28,78.254 88.783,74.34C89.486,68.862 90.159,67.348 92.367,66.276C94.572,65.206 95.713,65.08 103.08,65.091C112.238,65.104 114.799,65.561 116.489,67.486C117.904,69.097 118.623,73.791 118.805,82.614C118.97,90.605 118.38,97.348 117.34,99.359C116.622,100.746 114.923,101.683 111.864,102.379C109.966,102.811 99.293,103.049 96.432,102.722L96.432,102.722ZM105.606,92.047L106.166,91.591L106.088,84.153C105.997,75.436 106.095,75.773 103.673,75.773C102.516,75.773 102.155,75.872 101.717,76.309C101.186,76.84 101.18,76.925 101.108,84.187C101.038,91.324 101.05,91.541 101.524,92.015C102.204,92.695 104.784,92.715 105.606,92.047L105.606,92.047ZM161.53,102.688C159.303,102.164 159.02,101.55 158.834,96.819C158.602,90.895 159.724,75.603 160.659,71.943C161.633,68.136 163.229,66.438 166.327,65.916C167.421,65.731 170.418,65.664 175.203,65.715L182.427,65.793L184.053,66.624C185.848,67.541 187.067,68.88 187.47,70.381C188.099,72.713 188.74,77.661 189.486,85.939C190.628,98.61 190.71,100.252 190.258,101.332C189.784,102.467 189.146,102.635 184.488,102.848C180.436,103.033 178.666,102.774 178.105,101.913C177.919,101.627 177.672,100.216 177.539,98.675C177.232,95.121 177.233,95.124 175.882,95.071C174.189,95.006 173.14,95.124 172.971,95.398C172.886,95.535 172.693,96.622 172.541,97.814C172.108,101.222 171.35,102.267 168.99,102.709C167.45,102.998 162.79,102.985 161.53,102.688L161.53,102.688ZM176.601,85.505C176.955,84.728 176.492,78.172 176,76.994C175.511,75.823 174.823,75.492 174.222,76.137C173.628,76.775 173.548,77.191 173.207,81.403C172.841,85.919 172.904,86.092 174.899,86.092C176.195,86.092 176.359,86.035 176.601,85.505ZM122.352,102.367C121.32,101.999 121.41,102.07 120.981,101.287C120.514,100.434 120.434,94.085 120.745,82.401C121.11,68.66 121.354,66.95 123.045,66.243C124.958,65.444 133.774,65.619 135.459,66.49C136.077,66.81 136.423,67.377 136.775,68.644C136.848,68.906 137.167,70.883 137.485,73.036C138.115,77.302 138.377,78.257 138.915,78.257C139.383,78.257 139.665,77.138 140.24,72.997C140.782,69.092 141.232,67.342 141.833,66.807C142.678,66.052 144.294,65.828 149.02,65.811C155.455,65.786 155.908,66.024 156.361,69.663C156.75,72.78 157.097,82.376 157.156,91.672C157.208,99.805 157.188,100.264 156.736,101.165C156.116,102.402 155.214,102.669 151.591,102.693C148.963,102.71 148.782,102.68 148.109,102.114C147.258,101.398 147.008,100.152 146.648,94.843C146.41,91.329 146.285,90.603 145.918,90.603C145.581,90.603 145.235,92.18 144.633,96.467C144.318,98.712 143.892,100.874 143.687,101.27C143.055,102.492 142.3,102.712 138.736,102.712C134.103,102.712 133.895,102.491 133.123,96.756C132.368,91.145 131.975,89.819 131.466,91.157C131.344,91.478 131.129,93.434 130.989,95.504C130.635,100.705 130.417,101.676 129.472,102.252C128.842,102.636 128.281,102.708 125.991,102.7C124.311,102.695 122.911,102.566 122.352,102.367Z" style="fill-rule:nonzero;stroke:black;stroke-width:0.08px;"/>
        <g id="path201" serif:id="path20" transform="matrix(1,0,0,1,-1.27,0.423333)">
            <path d="M24.994,102.176C23.874,101.816 23.201,100.973 22.934,99.591C22.643,98.084 22.661,70.527 22.954,68.981C23.244,67.453 24.067,66.496 25.433,66.1C25.982,65.941 27.867,65.827 29.836,65.834C33.711,65.848 34.644,66.09 35.57,67.322C35.877,67.73 37.196,70.705 38.502,73.932C40.121,77.935 40.989,79.801 41.232,79.801C41.536,79.801 41.606,78.917 41.707,73.747C41.791,69.455 41.914,67.538 42.13,67.161C42.749,66.077 43.723,65.801 46.93,65.802C51.028,65.803 52.168,66.278 52.833,68.262C53.023,68.829 53.102,73.169 53.099,82.863C53.095,95.203 52.932,100.219 52.498,101.351C52.208,102.107 50.952,102.347 47.254,102.351C44.016,102.355 43.609,102.309 43.144,101.89C42.62,101.418 39.627,96.644 37.556,92.977C36.403,90.937 36.026,90.485 35.733,90.791C35.644,90.884 35.532,93.15 35.484,95.826C35.393,100.821 35.223,101.79 34.374,102.124C33.574,102.439 25.945,102.481 24.994,102.176L24.994,102.176Z" style="fill:rgb(0,133,255);fill-rule:nonzero;stroke:rgb(0,133,255);stroke-width:0.08px;"/>
        </g>
    </g>
</svg>
